name Walk6.mot
datacolumns 19
datarows 25
range 3.35000000 3.47000000
endheader

                time	   L_ground_force_vx	   L_ground_force_vy	   L_ground_force_vz	   L_ground_force_px	   L_ground_force_py	   L_ground_force_pz	   R_ground_force_vx	   R_ground_force_vy	   R_ground_force_vz	   R_ground_force_px	   R_ground_force_py	   R_ground_force_pz	   L_ground_torque_x	   L_ground_torque_y	   L_ground_torque_z	   R_ground_torque_x	   R_ground_torque_y	   R_ground_torque_z	
          3.35000000	          0.00000000	          0.00000000	          0.00000000	         -0.00000000	          0.00000000	         -0.00000000	          7.85805010	         43.77654305	          0.08671673	          0.15289146	          0.00000000	          0.09881237	          0.00000000	          0.00000000	          0.00000000	          0.00000000	         -2.20332391	          0.00000000	
          3.35500000	          0.00000000	          0.00000000	          0.00000000	         -0.00000000	          0.00000000	         -0.00000000	          4.50468509	         26.93460326	          0.40750561	          0.12845050	          0.00000000	          0.08194069	          0.00000000	          0.00000000	          0.00000000	          0.00000000	         -1.54243782	          0.00000000	
          3.36000000	          0.00000000	          0.00000000	          0.00000000	         -0.00000000	          0.00000000	         -0.00000000	          1.99519745	         14.01670615	          0.57946242	          0.10282376	          0.00000000	          0.06476092	          0.00000000	          0.00000000	          0.00000000	          0.00000000	         -0.99678266	          0.00000000	
          3.36500000	          0.00000000	          0.00000000	          0.00000000	         -0.00000000	          0.00000000	         -0.00000000	          0.22809763	          4.62422938	          0.64389706	          0.07825916	          0.00000000	          0.04862292	          0.00000000	          0.00000000	          0.00000000	          0.00000000	         -0.56803165	          0.00000000	
          3.37000000	          0.00000000	          0.00000000	         -0.00000000	         -0.00000000	          0.00000000	         -0.00000000	         -0.92314902	         -1.76470466	          0.63429327	          0.05631701	          0.00000000	          0.03442844	          0.00000000	          0.00000000	          0.00000000	          0.00000000	         -0.24815749	          0.00000000	
          3.37500000	          0.00000000	          0.00000000	         -0.00000000	         -0.00000000	          0.00000000	         -0.00000000	         -1.58841126	         -5.72223749	          0.57796962	          0.03779194	          0.00000000	          0.02260293	          0.00000000	          0.00000000	          0.00000000	          0.00000000	         -0.02340214	          0.00000000	
          3.38000000	          0.00000000	          0.00000000	         -0.00000000	         -0.00000000	          0.00000000	         -0.00000000	         -1.88940693	         -7.80756683	          0.49613995	          0.02292329	          0.00000000	          0.01323183	          0.00000000	          0.00000000	          0.00000000	          0.00000000	          0.12257994	          0.00000000	
          3.38500000	          0.00000000	          0.00000000	         -0.00000000	         -0.00000000	          0.00000000	         -0.00000000	         -1.93300038	         -8.52736401	          0.40442549	          0.01157535	          0.00000000	          0.00617586	          0.00000000	          0.00000000	          0.00000000	          0.00000000	          0.20650083	          0.00000000	
          3.39000000	          0.00000000	         -0.00000000	         -0.00000000	         -0.00000000	          0.00000000	         -0.00000000	         -1.80807905	         -8.31454461	          0.31362562	          0.00338267	          0.00000000	          0.00116256	          0.00000000	          0.00000000	          0.00000000	          0.00000000	          0.24398595	          0.00000000	
          3.39500000	         -0.00000000	         -0.00000000	         -0.00000000	         -0.00000000	          0.00000000	         -0.00000000	         -1.58497224	         -7.52048771	          0.23059343	         -0.00213867	          0.00000000	         -0.00214432	          0.00000000	          0.00000000	          0.00000000	          0.00000000	          0.24872810	          0.00000000	
          3.40000000	         -0.00000000	         -0.00000000	         -0.00000000	         -0.00000000	          0.00000000	         -0.00000000	         -1.31654602	         -6.41649475	          0.15910934	         -0.00551025	          0.00000000	         -0.00409536	          0.00000000	          0.00000000	          0.00000000	          0.00000000	          0.23209776	          0.00000000	
          3.40500000	         -0.00000000	         -0.00000000	         -0.00000000	         -0.00000000	          0.00000000	         -0.00000000	         -1.04028661	         -5.20105830	          0.10068435	         -0.00723659	          0.00000000	         -0.00502264	          0.00000000	          0.00000000	          0.00000000	          0.00000000	          0.20307692	          0.00000000	
          3.41000000	         -0.00000000	         -0.00000000	         -0.00000000	         -0.00000000	          0.00000000	         -0.00000000	         -0.78085271	         -4.01028163	          0.05525463	         -0.00777133	          0.00000000	         -0.00522005	          0.00000000	          0.00000000	          0.00000000	          0.00000000	          0.16840548	          0.00000000	
          3.41500000	         -0.00000000	         -0.00000000	         -0.00000000	          0.00000000	          0.00000000	          0.00000000	         -0.55272677	         -2.92949483	          0.02175145	         -0.00749963	          0.00000000	         -0.00493380	          0.00000000	         -0.00000000	          0.00000000	          0.00000000	          0.13285253	          0.00000000	
          3.42000000	         -0.00000000	         -0.00000000	         -0.00000000	          0.00000000	          0.00000000	          0.00000000	         -0.36272002	         -2.00471957	         -0.00145376	         -0.00673226	          0.00000000	         -0.00436004	          0.00000000	         -0.00000000	          0.00000000	          0.00000000	          0.09954608	          0.00000000	
          3.42500000	         -0.00000000	         -0.00000000	         -0.00000000	          0.00000000	          0.00000000	          0.00000000	         -0.21218561	         -1.25313004	         -0.01621984	         -0.00570772	          0.00000000	         -0.00364726	          0.00000000	         -0.00000000	          0.00000000	          0.00000000	          0.07031441	          0.00000000	
          3.43000000	         -0.00000000	         -0.00000000	         -0.00000000	          0.00000000	          0.00000000	          0.00000000	         -0.09886948	         -0.67204279	         -0.02440625	         -0.00459930	          0.00000000	         -0.00290172	          0.00000000	         -0.00000000	          0.00000000	          0.00000000	          0.04600768	          0.00000000	
          3.43500000	         -0.00000000	         -0.00000000	         -0.00000000	          0.00000000	          0.00000000	          0.00000000	         -0.01838267	         -0.24625234	         -0.02772580	         -0.00352473	          0.00000000	         -0.00219413	          0.00000000	         -0.00000000	          0.00000000	          0.00000000	          0.02678160	          0.00000000	
          3.44000000	         -0.00000000	         -0.00000000	          0.00000000	          0.00000000	          0.00000000	          0.00000000	          0.03468581	          0.04627441	         -0.02766178	         -0.00255687	          0.00000000	         -0.00156683	          0.00000000	         -0.00000000	          0.00000000	          0.00000000	          0.01233418	          0.00000000	
          3.44500000	         -0.00000000	         -0.00000000	          0.00000000	          0.00000000	          0.00000000	          0.00000000	          0.06597437	          0.23020640	         -0.02543302	         -0.00173399	          0.00000000	         -0.00104065	          0.00000000	         -0.00000000	          0.00000000	          0.00000000	          0.00209385	          0.00000000	
          3.45000000	         -0.00000000	         -0.00000000	          0.00000000	          0.00000000	          0.00000000	          0.00000000	          0.08082135	          0.32995188	         -0.02199231	         -0.00106915	          0.00000000	         -0.00062091	          0.00000000	         -0.00000000	          0.00000000	          0.00000000	         -0.00463867	          0.00000000	
          3.45500000	         -0.00000000	         -0.00000000	          0.00000000	          0.00000000	          0.00000000	          0.00000000	          0.08395043	          0.36782152	         -0.01804652	         -0.00055824	          0.00000000	         -0.00030263	          0.00000000	         -0.00000000	          0.00000000	          0.00000000	         -0.00858925	          0.00000000	
          3.46000000	         -0.00000000	          0.00000000	          0.00000000	          0.00000000	          0.00000000	          0.00000000	          0.07931759	          0.36301636	         -0.01408891	         -0.00018646	          0.00000000	         -0.00007459	          0.00000000	         -0.00000000	          0.00000000	          0.00000000	         -0.01044337	          0.00000000	
          3.46500000	         -0.00000000	          0.00000000	          0.00000000	          0.00000000	          0.00000000	          0.00000000	          0.07007357	          0.33122469	         -0.01043670	          0.00006671	          0.00000000	          0.00007754	          0.00000000	         -0.00000000	          0.00000000	          0.00000000	         -0.01080644	          0.00000000	
          3.47000000	          0.00000000	          0.00000000	          0.00000000	          0.00000000	          0.00000000	          0.00000000	          0.05860359	          0.28464144	         -0.00726920	          0.00022378	          0.00000000	          0.00016897	          0.00000000	         -0.00000000	          0.00000000	          0.00000000	         -0.01018461	          0.00000000	
